<svg width="114" height="114" viewBox="0 0 114 114" fill="none" xmlns="http://www.w3.org/2000/svg">
<path d="M114 57C114 88.4802 88.4802 114 57 114C25.5198 114 0 88.4802 0 57C0 25.5198 25.5198 0 57 0C88.4802 0 114 25.5198 114 57Z" fill="#222222"/>
<path d="M76.9915 70.2196C76.9932 69.4611 76.9932 68.7043 76.9932 67.9458V67.2832C76.9949 66.772 76.9949 66.2607 76.9915 65.7512C76.9865 65.1693 76.5929 64.6648 76.0346 64.5268C75.9337 64.5016 75.8328 64.4932 75.7251 64.4848C75.71 64.4831 75.6932 64.4814 75.6764 64.4814V59.2915C75.6764 54.6415 75.6764 49.9915 75.6747 45.3414C75.6747 44.472 75.4611 43.6883 75.039 43.0156C73.9913 41.3388 72.4625 40.4845 70.4932 40.4812C64.2136 40.466 57.8296 40.4677 51.6559 40.4677C48.7599 40.4677 45.8623 40.4694 42.9646 40.4677H43.1227C42.3441 40.4677 41.5974 40.6157 40.9079 40.9066C38.9486 41.7341 37.7882 43.4663 37.8033 45.5382C37.8252 48.4964 37.8168 51.505 37.8101 54.4145L37.8067 55.4656C37.8033 57.006 38.9015 57.9327 39.924 58.1395C40.3243 58.2203 40.5816 58.2337 40.9835 58.2472C41.1433 58.2522 41.3014 58.2573 41.4595 58.2657C41.5991 58.2741 41.742 58.2724 41.8799 58.269C41.9018 58.269 42.0313 58.269 42.0531 58.2674V61.5401H41.663C41.2812 61.5401 40.8978 61.5417 40.516 61.5434C39.6196 61.5468 38.8746 61.5518 37.9631 61.5333C37.546 61.53 37.1777 61.6645 36.9154 61.9235C36.6463 62.1892 36.5067 62.5609 36.5084 62.9998C36.5286 65.8773 36.5252 68.8035 36.5218 71.6322C36.5202 72.6749 36.5202 73.7193 36.5202 74.762V75.2329C36.5185 75.6163 36.5185 75.9998 36.5235 76.3815C36.5319 77.0626 36.8868 77.5032 37.5477 77.6529C37.7243 77.6933 37.9194 77.7118 38.1447 77.7118C49.6126 77.7135 60.8955 77.7135 72.3633 77.7135H75.3955C75.4241 77.7135 75.4544 77.7151 75.483 77.7151C75.5116 77.7151 75.5401 77.7151 75.5704 77.7135C76.4601 77.6748 77.0083 77.1148 76.9999 76.252C76.9848 74.244 76.9881 72.1973 76.9915 70.2196ZM74.4958 66.9402V75.2009H50.0667V66.9402H74.4958ZM42.0582 66.5836C42.0599 67.1924 42.3188 67.6465 42.8671 67.8248C43.4507 68.0131 43.8358 67.8819 44.2108 67.4985C44.4294 67.2748 44.5337 67.0007 44.5337 66.661C44.5303 65.8706 44.532 65.0785 44.5337 64.288C44.5337 64.2039 44.5388 64.1182 44.5438 64.0307L44.5455 64.0005C44.5741 63.9954 44.6918 63.992 44.717 63.992C45.5108 63.9904 46.3029 63.9904 47.0917 63.9904H47.5709L47.5878 75.2009H44.5203C44.5152 75.1236 44.4917 73.1845 44.5169 72.6312C44.532 72.2932 44.4126 71.972 44.1805 71.7231C43.93 71.454 43.6928 71.3026 43.3077 71.2942C42.9545 71.2892 42.6804 71.4136 42.4349 71.6524C42.1809 71.898 42.0397 72.2427 42.038 72.6211C42.0329 73.1576 42.0346 73.6941 42.0346 74.2306V75.206H39.0192V64.0089H42.0565V64.9691C42.0565 65.509 42.0565 66.0471 42.0582 66.5836ZM40.3041 45.4205C40.3024 43.9927 41.3956 43.1047 42.4769 42.9651C42.7796 42.9264 43.0874 42.9062 43.3901 42.9062C51.5029 42.9029 61.1326 42.9012 70.4629 42.9062C71.5241 42.9062 72.3331 43.3183 72.8695 44.1289C73.105 44.4871 73.2109 44.9092 73.2092 45.4995C73.2059 47.193 73.2059 48.8849 73.2059 50.5784V64.4781H60.8114V61.6897C60.8114 57.3575 60.8114 53.027 60.8097 48.6915C60.8097 48.5048 60.8097 48.3114 60.7559 48.1281C60.6129 47.637 60.1454 47.2788 59.5938 47.2384C59.5467 47.2351 59.4996 47.2351 59.4525 47.2368H56.7752C53.8977 47.2368 51.0185 47.2368 48.1411 47.2368C47.3876 47.2368 46.8495 47.6488 46.7385 48.3097C46.72 48.4157 46.7217 48.5216 46.7217 48.6242V55.2806C46.7217 55.3495 46.7217 55.4185 46.72 55.4857C46.7116 55.7649 46.6863 55.7918 46.4206 55.7969C46.2474 55.8002 46.0759 55.8002 45.9027 55.7986L40.738 55.8002C40.3411 55.8002 40.3041 55.7632 40.3041 55.3546V51.9642C40.3058 49.7779 40.3075 47.6 40.3041 45.4205ZM50.065 63.5497C50.065 63.4724 50.065 63.395 50.0667 63.316C50.0684 63.1058 50.0717 62.8888 50.0465 62.6736C49.9674 61.9958 49.4966 61.5653 48.8154 61.5485C48.1982 61.5333 46.3971 61.5367 45.1946 61.5384H44.5472V58.2657H44.6598C44.754 58.2657 44.8415 58.2657 44.9289 58.2657C45.1223 58.2623 45.314 58.2623 45.5074 58.2606C45.9447 58.259 46.2188 58.2573 46.6628 58.2236C47.8922 58.1311 49.2123 57.0901 49.2006 55.5732C49.1905 54.2614 49.1938 52.9261 49.1972 51.6345C49.1989 51.0779 49.1989 50.5212 49.2006 49.9629V49.6837H58.3409V64.468H50.0684V64.2645C50.0667 64.0257 50.0667 63.7869 50.065 63.5497Z" fill="white"/>
<path d="M66.9151 54.0108C67.7745 54.0108 68.6372 53.7383 69.3335 53.1783C70.514 52.2281 70.9126 50.7398 70.3475 49.386C69.8043 48.0826 68.3749 47.2367 66.7066 47.23H66.7032C66.0204 47.2417 65.2636 47.5075 64.6279 47.9582C63.8459 48.5131 63.3531 49.3254 63.2405 50.2453C63.1312 51.1417 63.4002 52.0179 63.9973 52.7142C64.7322 53.5702 65.8203 54.0108 66.9151 54.0108ZM65.6756 50.6574C65.6706 50.3866 65.7967 50.1058 66.0238 49.8855C66.2693 49.6483 66.5838 49.5188 66.9033 49.5306C67.5558 49.5541 68.1175 50.0805 68.1058 50.6574C68.094 51.2325 67.5508 51.6984 66.8966 51.6984H66.8916C66.2323 51.6967 65.6874 51.2292 65.6756 50.6574Z" fill="white"/>
<path d="M69.5814 58.2423C69.3359 58.1413 69.0802 58.1161 68.9087 58.1111C68.2461 58.0959 65.6259 58.0993 64.9852 58.1077C64.7682 58.1111 64.5664 58.1363 64.3865 58.1834C63.9173 58.3078 63.5406 58.7417 63.4918 59.2143C63.4397 59.7222 63.7037 60.1847 64.1679 60.3932C64.405 60.5008 64.6791 60.5614 64.9431 60.5631C65.5603 60.5698 66.1809 60.5732 66.7998 60.5732C67.3178 60.5732 67.8324 60.5715 68.3403 60.5698L68.8297 60.5681C68.9978 60.5681 69.161 60.5513 69.3174 60.521C69.8404 60.4184 70.2591 59.9879 70.3113 59.4968C70.3685 58.9334 70.091 58.4525 69.5814 58.2423Z" fill="white"/>
</svg>
