<svg width="114" height="114" viewBox="0 0 114 114" fill="none" xmlns="http://www.w3.org/2000/svg">
<path d="M114 57C114 88.4802 88.4802 114 57 114C25.5198 114 0 88.4802 0 57C0 25.5198 25.5198 0 57 0C88.4802 0 114 25.5198 114 57Z" fill="#222222"/>
<path d="M37.558 72.9737C38.4346 72.9789 39.3111 72.9772 40.1877 72.9772H41.8077L41.8475 73.0948C42.769 75.8196 45.257 77.1474 47.3144 77.2529C50.5579 77.4188 52.809 76.0201 54.0072 73.0948L54.0504 72.9876H63.6876L63.7308 73.0965C64.82 75.8749 66.8204 77.2823 69.6749 77.2823C69.6784 77.2823 69.6835 77.2823 69.687 77.2823C72.6452 77.2788 74.7027 75.868 75.8006 73.0878L75.8438 72.9789H77.6142C78.598 72.9789 79.5818 72.9806 80.5655 72.9772C81.4179 72.9755 81.9936 72.4187 81.9954 71.5923C82.0023 69.317 82.0006 67.0037 81.9988 64.7664L81.9971 62.3113C81.9971 61.9569 81.8813 61.6526 81.6444 61.3794C81.3972 61.0959 78.4095 58.0546 78.2418 57.7555C76.7255 55.0567 75.3009 52.2713 73.7656 49.4635C73.4111 48.8134 72.9288 48.5247 72.2026 48.5247C72.1992 48.5247 72.194 48.5247 72.1905 48.5247C70.7192 48.5316 69.4691 48.5299 68.0238 48.5282L65.3283 48.5264V48.3535C65.3283 48.191 65.3283 48.0337 65.3301 47.8798C65.3318 47.5427 65.3318 47.2989 65.3266 46.979C65.3197 46.5969 65.1572 46.2771 64.8442 46.0316C64.533 45.786 64.1492 45.6667 63.6737 45.6667C54.965 45.6667 46.6056 45.6667 37.8986 45.6685C37.6704 45.6685 37.4439 45.6858 37.2278 45.7203C36.6365 45.8154 36.1454 46.3203 36.1109 46.8701C36.0728 47.4821 36.4618 47.9472 37.0583 48.1115C37.328 48.1858 37.6237 48.1962 37.8502 48.1962C44.8438 48.1996 51.8374 48.1996 58.8275 48.1996H62.8127V54.6002C62.8127 54.9719 62.8127 55.3419 62.811 55.7137C62.8093 56.6335 62.8075 57.5826 62.8179 58.518C62.8248 59.1767 63.3245 59.7283 63.9815 59.8026C64.2356 59.832 64.5071 59.8458 64.8096 59.8458C68.5321 59.8493 72.3824 59.851 76.1671 59.8406H76.1723C76.5457 59.8406 76.8016 59.9582 77.0281 60.2331C77.0281 60.2331 78.598 61.6837 79.2048 62.3839L79.2394 62.4237C79.3777 62.5828 79.4538 62.7868 79.4538 62.9977C79.4504 64.5797 79.4901 70.4408 79.4901 70.4408H75.8472L75.8075 70.2627C74.7995 67.1973 72.085 66.0458 70.0674 65.9922C66.9795 65.9093 64.8321 67.3339 63.691 70.2264L63.6478 70.4391H54.0642C54.0366 70.2973 53.9951 70.1555 53.9398 70.0207C52.8401 67.3633 50.8328 66.0043 47.9732 65.9819C47.949 65.9819 47.9248 65.9819 47.9023 65.9819C45.0098 65.9819 43.0439 67.3581 41.9236 70.076C41.8769 70.1884 41.8406 70.306 41.8129 70.4235H40.3347C39.4702 70.4235 38.6057 70.4218 37.7395 70.427C37.513 70.4287 37.3211 70.446 37.1534 70.484C36.7125 70.5843 36.3512 70.816 36.1887 71.2171C36.04 71.5819 36.078 71.9779 36.2889 72.3012C36.5759 72.7472 37.0013 72.9703 37.558 72.9737ZM65.3543 57.3026V51.0956C65.3543 51.0956 70.3596 51.0662 71.2482 51.0611C71.5698 51.0576 71.7773 51.1734 71.926 51.4449C72.6141 52.7018 73.323 54.0539 74.0059 55.2866L75.0796 57.3008H65.3543V57.3026ZM66.2118 71.1825C66.2862 70.4132 66.6613 69.7855 67.3581 69.2651C68.0652 68.7378 68.9021 68.4854 69.8426 68.5165C70.9007 68.5511 71.7842 68.9263 72.4671 69.6299C73.0273 70.2057 73.304 70.8765 73.2919 71.6217C73.3212 73.0671 72.149 74.3448 70.5065 74.6594C70.2143 74.7148 69.9273 74.7442 69.6507 74.7442C68.7101 74.7442 67.8595 74.4226 67.1143 73.7846C66.3864 73.1604 66.0994 72.334 66.2118 71.1825ZM44.3597 71.4799C44.3735 70.612 44.8593 69.8028 45.7255 69.2012C47.164 68.2036 49.2284 68.3298 50.5268 69.4934C51.7163 70.5584 51.8477 72.2164 50.8398 73.4354C50.1637 74.2531 49.1056 74.72 47.9611 74.72C47.8539 74.72 47.7467 74.7165 47.6395 74.7079C46.3825 74.6128 45.2898 73.9679 44.7176 72.9841C44.4772 72.5726 44.37 72.1231 44.3597 71.4851V71.4799Z" fill="white"/>
<path d="M49.8199 51.6592C49.6384 51.6022 49.424 51.5728 49.1819 51.5728C48.0166 51.5693 45.195 51.5659 42.3958 51.5659C39.6191 51.5659 36.8615 51.5676 35.7601 51.5745C35.4679 51.5763 35.1861 51.6281 34.9665 51.7215C34.5343 51.9048 34.2456 52.2765 34.1937 52.7156C34.1418 53.1617 34.3389 53.5974 34.7245 53.8792C35.0046 54.085 35.3486 54.1818 35.8085 54.1818H38.9328C42.3163 54.1818 45.6998 54.1818 49.0834 54.18C49.2857 54.18 49.4828 54.161 49.6712 54.1213C50.2574 54.002 50.7086 53.5144 50.7415 52.9646C50.7778 52.3595 50.4164 51.8477 49.8199 51.6592Z" fill="white"/>
<path d="M48.0994 58.8569C48.2084 58.4299 48.0942 58.0547 47.7519 57.7089C47.4563 57.4098 47.0655 57.2767 46.4863 57.2767L41.5588 57.2784C38.7873 57.2784 36.0176 57.2784 33.2461 57.2819C33.0559 57.2819 32.8553 57.3009 32.6513 57.3354C32.124 57.4288 31.6641 57.8818 31.5828 58.3918C31.4929 58.9537 31.7592 59.4499 32.2778 59.6868C32.5458 59.8096 32.8691 59.8805 33.1631 59.8839C35.3951 59.9012 44.294 59.896 46.5105 59.8891C46.6817 59.8891 46.9324 59.8805 47.152 59.813C47.6672 59.654 47.9749 59.3428 48.0994 58.8569Z" fill="white"/>
<path d="M44.4359 64.4639C44.5068 63.8588 44.1178 63.2865 43.5092 63.1032C43.3277 63.0479 43.1064 63.022 42.8315 63.0202C40.9798 63.0151 39.1281 63.0168 37.2763 63.0168H35.824C35.7808 63.0168 35.7376 63.0168 35.6961 63.0168C35.6114 63.0168 35.5284 63.0185 35.4471 63.0237C35.0114 63.0531 34.6103 63.2865 34.3786 63.6461C34.166 63.9763 34.1176 64.3688 34.249 64.725C34.4374 65.235 34.9509 65.5825 35.5267 65.5877C36.8251 65.5998 42.6672 65.605 43.1721 65.5843C43.7997 65.5566 44.365 65.0552 44.4359 64.4639Z" fill="white"/>
</svg>
