<svg width="114" height="114" viewBox="0 0 114 114" fill="none" xmlns="http://www.w3.org/2000/svg">
<path d="M114 57C114 88.4802 88.4802 114 57 114C25.5198 114 0 88.4802 0 57C0 25.5198 25.5198 0 57 0C88.4802 0 114 25.5198 114 57Z" fill="#222222"/>
<path d="M36.3672 71.9932C36.3708 70.4945 36.5876 69.0084 37.0103 67.5746C37.8174 64.8368 39.3005 62.384 41.4213 60.2883C41.8841 59.8302 42.3833 59.4064 42.8661 58.9952C43.0866 58.8076 43.307 58.62 43.5257 58.4288L43.8336 58.1583L45.0707 59.2819C47.3318 61.3361 52.6283 66.148 54.4794 67.8162C55.108 68.3825 55.9552 68.3862 56.5874 67.8271C57.4638 67.0497 66.0289 59.1863 66.7704 58.4775L67.0073 58.2503L67.3571 58.4324C67.3953 58.4505 67.4372 58.4721 67.4864 58.5082C72.107 62.0251 74.512 66.5718 74.6322 72.0239C74.6359 72.2024 74.6668 72.372 74.7197 72.4982C74.9766 73.115 75.6598 73.4649 76.3467 73.3278C77.0573 73.1872 77.5109 72.6479 77.5018 71.9554C77.4818 70.4332 77.3087 69.0444 76.9753 67.7062C76.1444 64.3733 74.45 61.3794 71.9412 58.8076C69.6746 56.4846 66.9508 54.7406 63.6111 53.4727C63.4471 53.4096 63.2795 53.3537 63.1028 53.2924C63.0153 53.2617 62.9242 53.231 62.8295 53.1986L62.1317 52.9551L62.7165 52.3996C62.7639 52.3527 62.8003 52.3185 62.8386 52.2896C63.653 51.68 64.3308 51.0235 64.912 50.2841C66.7285 47.9683 67.45 45.5227 67.1166 42.8066C66.7722 39.9967 65.4003 37.6539 63.0408 35.8414C60.3425 33.7691 57.1613 32.9882 53.583 33.5184C50.4893 33.9765 47.9622 35.3923 46.0692 37.7225C44.1415 40.0959 43.4309 42.794 43.9593 45.741C44.3547 47.9539 45.477 49.9035 47.2972 51.5357C47.5158 51.7305 47.749 51.9199 47.995 52.1183C48.117 52.2175 48.2428 52.3185 48.3721 52.4249L48.9679 52.9154L48.1298 53.2365C48.0551 53.2653 47.9968 53.2888 47.9349 53.3086C45.6155 54.0823 43.4892 55.1843 41.6126 56.5838C38.3221 59.0402 35.9681 62.1243 34.6181 65.7512C33.8528 67.8036 33.4793 69.9083 33.503 72.0059C33.5048 72.1844 33.5249 72.3251 33.5613 72.4369C33.7708 73.0645 34.4486 73.4361 35.1738 73.3206C35.8843 73.2106 36.3653 72.6768 36.3672 71.9932ZM47.8128 47.9431C46.0764 45.2234 46.3279 41.6884 48.4395 39.1472C49.99 37.2806 52.0543 36.2057 54.5741 35.9568C57.2269 35.6935 59.5791 36.4059 61.5614 38.0741C63.4963 39.7027 64.4474 41.7714 64.3873 44.2206C64.3417 46.1071 63.6366 47.7862 62.292 49.211C60.4791 51.1335 58.2272 52.0461 55.2045 52.0822H55.179C52.0051 51.9469 49.4562 50.5167 47.8128 47.9431ZM46.9437 56.4864C49.7295 55.2366 52.539 54.6306 55.5325 54.6306C55.5325 54.6306 55.5361 54.6306 55.5398 54.6306C58.5223 54.6306 61.3318 55.2384 64.1249 56.4882L64.7535 56.7696L55.5343 65.1434L46.3151 56.7696L46.9437 56.4864Z" fill="white"/>
<path d="M44.2991 68.3319C44.2918 68.3319 44.2863 68.3319 44.279 68.3319C43.4938 68.3409 42.9381 68.8495 42.9271 69.571C42.9217 69.9677 42.9235 71.6054 42.929 72.0256C42.9381 72.7434 43.5065 73.27 44.2772 73.279C45.0333 73.288 45.6419 72.7506 45.6564 72.058C45.6765 71.1887 45.6783 70.3393 45.6601 69.5349C45.6455 68.8351 45.0734 68.3319 44.2991 68.3319Z" fill="white"/>
<path d="M67.5936 68.3319C67.5353 68.3319 67.477 68.3337 67.415 68.3373C66.801 68.3788 66.2781 68.9235 66.2727 69.5277C66.2672 70.3339 66.2672 71.1635 66.2727 72.0652C66.2745 72.3935 66.4111 72.6965 66.6571 72.9201C66.9103 73.1492 67.2565 73.2754 67.6337 73.2754C67.6373 73.2754 67.641 73.2754 67.6446 73.2754C68.4007 73.27 68.9746 72.7506 68.9819 72.0689L68.9765 69.4609C68.9692 69.3239 68.9364 69.1832 68.8854 69.075C68.6594 68.5826 68.2258 68.3319 67.5936 68.3319Z" fill="white"/>
</svg>
